<svg xmlns="http://www.w3.org/2000/svg" width="48" height="48" viewBox="0 0 48 48" fill="none">
  <!-- Bulb glass -->
  <path d="M24 4C16.268 4 10 10.268 10 18c0 4.42 2.04 8.37 5.23 10.95C16.84 30.24 18 32.14 18 34.2V36h12v-1.8c0-2.06 1.16-3.96 2.77-5.25C35.96 26.37 38 22.42 38 18c0-7.732-6.268-14-14-14z" fill="url(#bulbGrad)"/>
  <!-- Glow -->
  <circle cx="24" cy="18" r="10" fill="url(#glowGrad)" opacity="0.5"/>
  <!-- Filament -->
  <path d="M20 22c0 0 1.5-4 4-4s4 4 4 4" stroke="#FFE0A0" stroke-width="1.5" stroke-linecap="round" fill="none" opacity="0.9"/>
  <path d="M21 24c0 0 1.2-3 3-3s3 3 3 3" stroke="#FFD080" stroke-width="1" stroke-linecap="round" fill="none" opacity="0.7"/>
  <!-- Base/screw -->
  <rect x="17" y="36" width="14" height="2" rx="1" fill="#B8A070"/>
  <rect x="18" y="38.5" width="12" height="2" rx="1" fill="#A89060"/>
  <rect x="19" y="41" width="10" height="2" rx="1" fill="#988050"/>
  <path d="M20 43h8v1.5a2 2 0 01-2 2h-4a2 2 0 01-2-2V43z" fill="#887040"/>
  <!-- Light rays -->
  <line x1="24" y1="1" x2="24" y2="3" stroke="#FFD060" stroke-width="1.5" stroke-linecap="round" opacity="0.6"/>
  <line x1="7" y1="18" x2="9" y2="18" stroke="#FFD060" stroke-width="1.5" stroke-linecap="round" opacity="0.6"/>
  <line x1="39" y1="18" x2="41" y2="18" stroke="#FFD060" stroke-width="1.5" stroke-linecap="round" opacity="0.6"/>
  <line x1="11.3" y1="6.3" x2="12.7" y2="7.7" stroke="#FFD060" stroke-width="1.5" stroke-linecap="round" opacity="0.5"/>
  <line x1="36.7" y1="6.3" x2="35.3" y2="7.7" stroke="#FFD060" stroke-width="1.5" stroke-linecap="round" opacity="0.5"/>
  <defs>
    <radialGradient id="bulbGrad" cx="24" cy="16" r="16" gradientUnits="userSpaceOnUse">
      <stop offset="0" stop-color="#FFF8E0"/>
      <stop offset="0.5" stop-color="#FFE8A0"/>
      <stop offset="1" stop-color="#D4A840"/>
    </radialGradient>
    <radialGradient id="glowGrad" cx="24" cy="18" r="10" gradientUnits="userSpaceOnUse">
      <stop offset="0" stop-color="#FFFFFF" stop-opacity="0.8"/>
      <stop offset="1" stop-color="#FFD060" stop-opacity="0"/>
    </radialGradient>
  </defs>
</svg>
